<svg width="512" height="512" viewBox="0 0 512 512" xmlns="http://www.w3.org/2000/svg">
  <!-- Background -->
  <rect width="512" height="512" fill="#000000"/>
  
  <!-- Outer ring -->
  <circle cx="256" cy="256" r="200" fill="none" stroke="#DC143C" stroke-width="8"/>
  
  <!-- Inner elements representing AI/tech -->
  <circle cx="256" cy="256" r="80" fill="none" stroke="#00FFFF" stroke-width="6"/>
  
  <!-- Central dot -->
  <circle cx="256" cy="256" r="20" fill="#DC143C"/>
  
  <!-- Arc elements -->
  <path d="M 156 256 A 100 100 0 0 1 356 256" fill="none" stroke="#00FFFF" stroke-width="4"/>
  <path d="M 356 256 A 100 100 0 0 1 156 256" fill="none" stroke="#00FFFF" stroke-width="4"/>
  
  <!-- Corner accents -->
  <rect x="50" y="50" width="30" height="4" fill="#DC143C"/>
  <rect x="50" y="50" width="4" height="30" fill="#DC143C"/>
  
  <rect x="432" y="50" width="30" height="4" fill="#DC143C"/>
  <rect x="458" y="50" width="4" height="30" fill="#DC143C"/>
  
  <rect x="50" y="458" width="30" height="4" fill="#DC143C"/>
  <rect x="50" y="432" width="4" height="30" fill="#DC143C"/>
  
  <rect x="432" y="458" width="30" height="4" fill="#DC143C"/>
  <rect x="458" y="432" width="4" height="30" fill="#DC143C"/>
</svg>